<svg width="504px" height="849px" viewBox="0 0 504 849" preserveAspectRatio="xMinYMin meet" xmlns="http://www.w3.org/2000/svg" xmlns:xlink="http://www.w3.org/1999/xlink" version="1.1"><style type="text/css"><![CDATA[@import url("https://fonts.googleapis.com/css2?family=Kosugi+Maru&display=swap");]]></style><defs><filter id="receiptlineinvert" x="0" y="0" width="100%" height="100%"><feFlood flood-color="#000"/><feComposite in="SourceGraphic" operator="xor"/></filter></defs><g font-family="'Kosugi Maru', 'MS Gothic', 'San Francisco', 'Osaka-Mono', monospace" fill="#000" font-size="24" dominant-baseline="text-after-edge" text-anchor="middle" xml:lang="ja"><g transform="translate(0,24)"><text><tspan x="6">&#xa0;</tspan></text></g><g transform="translate(0,96)"><text transform="scale(3,3)"><tspan x="14">&#xa0;</tspan><tspan x="26">&#xa0;</tspan><tspan x="38">J</tspan><tspan x="50">a</tspan><tspan x="62">z</tspan><tspan x="74">z</tspan><tspan x="92">喫</tspan><tspan x="116">茶</tspan></text><text><tspan x="426">&#xa0;</tspan></text></g><g transform="translate(0,120)"><text><tspan x="6">&#xa0;</tspan></text><text><tspan x="426">&#xa0;</tspan></text></g><g transform="translate(0,144)"><text><tspan x="6">&#xa0;</tspan></text><text><tspan x="426">&#xa0;</tspan></text></g><g transform="translate(0,168)"><text><tspan x="6">&#xa0;</tspan></text><text><tspan x="60">豊</tspan><tspan x="84">橋</tspan><tspan x="108">技</tspan><tspan x="132">術</tspan><tspan x="156">科</tspan><tspan x="180">学</tspan><tspan x="204">大</tspan><tspan x="228">学</tspan><tspan x="246">&#xa0;</tspan><tspan x="258">J</tspan><tspan x="270">a</tspan><tspan x="282">z</tspan><tspan x="294">z</tspan><tspan x="312">研</tspan><tspan x="336">究</tspan><tspan x="360">会</tspan></text><text><tspan x="474">&#xa0;</tspan></text></g><g transform="translate(0,192)"><text><tspan x="6">&#xa0;</tspan></text><text><tspan x="54">2</tspan><tspan x="66">0</tspan><tspan x="78">2</tspan><tspan x="90">4</tspan><tspan x="102">/</tspan><tspan x="114">0</tspan><tspan x="126">9</tspan><tspan x="138">/</tspan><tspan x="150">3</tspan><tspan x="162">0</tspan><tspan x="180">（</tspan><tspan x="204">月</tspan><tspan x="228">）</tspan><tspan x="246">1</tspan><tspan x="258">7</tspan><tspan x="270">:</tspan><tspan x="282">3</tspan><tspan x="294">6</tspan></text><text><tspan x="474">&#xa0;</tspan></text></g><g transform="translate(0,216)"><text><tspan x="6">&#xa0;</tspan></text><text><tspan x="54">O</tspan><tspan x="66">r</tspan><tspan x="78">d</tspan><tspan x="90">e</tspan><tspan x="102">r</tspan><tspan x="114">&#xa0;</tspan><tspan x="126">#</tspan><tspan x="138">1</tspan></text><text><tspan x="474">&#xa0;</tspan></text></g><g transform="translate(0,240)"><text><tspan x="6">&#xa0;</tspan></text><text><tspan x="54">&#xa0;</tspan></text><text><tspan x="474">&#xa0;</tspan></text></g><g transform="translate(0,264)"><text><tspan x="6">&#xa0;</tspan></text><text><tspan x="54">h</tspan><tspan x="66">o</tspan><tspan x="78">t</tspan><tspan x="90">C</tspan><tspan x="102">o</tspan><tspan x="114">f</tspan><tspan x="126">f</tspan><tspan x="138">e</tspan><tspan x="150">e</tspan><tspan x="162">&#xa0;</tspan><tspan x="174">x</tspan><tspan x="186">3</tspan></text><text><tspan x="384">￥</tspan><tspan x="402">3</tspan><tspan x="414">0</tspan><tspan x="426">0</tspan></text><text><tspan x="450">&#xa0;</tspan></text></g><g transform="translate(0,288)"><text><tspan x="6">&#xa0;</tspan></text><text><tspan x="54">&#xa0;</tspan></text><text><tspan x="246">&#xa0;</tspan></text><text><tspan x="450">&#xa0;</tspan></text></g><g transform="translate(0,312)"><text><tspan x="6">&#xa0;</tspan></text><text><tspan x="54">&#xa0;</tspan></text><text><tspan x="246">&#xa0;</tspan></text><text><tspan x="450">&#xa0;</tspan></text></g><g transform="translate(0,336)"><text><tspan x="6">&#xa0;</tspan></text><text stroke="#000" transform="scale(2,1)"><tspan x="36">合</tspan><tspan x="60">計</tspan></text><text><tspan x="330">3</tspan><tspan x="348">点</tspan><tspan x="366">&#xa0;</tspan><tspan x="384">￥</tspan><tspan x="402">3</tspan><tspan x="414">0</tspan><tspan x="426">0</tspan></text><text><tspan x="450">&#xa0;</tspan></text></g><g transform="translate(0,360)"><text><tspan x="6">&#xa0;</tspan></text><text><tspan x="60">お</tspan><tspan x="84">預</tspan><tspan x="108">か</tspan><tspan x="132">り</tspan></text><text><tspan x="384">￥</tspan><tspan x="402">3</tspan><tspan x="414">0</tspan><tspan x="426">0</tspan></text><text><tspan x="450">&#xa0;</tspan></text></g><g transform="translate(0,384)"><text><tspan x="6">&#xa0;</tspan></text><text stroke="#000" transform="scale(2,1)"><tspan x="36">お</tspan><tspan x="60">釣</tspan><tspan x="84">り</tspan></text><text transform="scale(2,1)"><tspan x="192">￥</tspan><tspan x="210">0</tspan></text><text><tspan x="450">&#xa0;</tspan></text></g><g transform="translate(0,408)"><text><tspan x="6">&#xa0;</tspan></text><text><tspan x="54">&#xa0;</tspan></text><text><tspan x="246">&#xa0;</tspan></text><text><tspan x="450">&#xa0;</tspan></text></g><g transform="translate(0,432)"><text><tspan x="6">&#xa0;</tspan></text><text><tspan x="60">☆</tspan><tspan x="84">ご</tspan><tspan x="108">来</tspan><tspan x="132">店</tspan><tspan x="156">あ</tspan><tspan x="180">り</tspan><tspan x="204">が</tspan><tspan x="228">と</tspan><tspan x="252">う</tspan><tspan x="276">ご</tspan><tspan x="300">ざ</tspan><tspan x="324">い</tspan><tspan x="348">ま</tspan><tspan x="372">し</tspan><tspan x="396">た</tspan><tspan x="420">。</tspan><tspan x="444">☆</tspan></text><text><tspan x="486">&#xa0;</tspan></text></g><g transform="translate(0,456)"><text><tspan x="6">&#xa0;</tspan></text><text><tspan x="30">&#xa0;</tspan></text><text><tspan x="486">&#xa0;</tspan></text></g><g transform="translate(139.5,456)"><path d="M0,0l5,0 0,5 -5,0 0,-5z M5,0l5,0 0,5 -5,0 0,-5z M10,0l5,0 0,5 -5,0 0,-5z M15,0l5,0 0,5 -5,0 0,-5z M20,0l5,0 0,5 -5,0 0,-5z M25,0l5,0 0,5 -5,0 0,-5z M30,0l5,0 0,5 -5,0 0,-5z M40,0l5,0 0,5 -5,0 0,-5z M55,0l5,0 0,5 -5,0 0,-5z M60,0l5,0 0,5 -5,0 0,-5z M70,0l5,0 0,5 -5,0 0,-5z M75,0l5,0 0,5 -5,0 0,-5z M80,0l5,0 0,5 -5,0 0,-5z M85,0l5,0 0,5 -5,0 0,-5z M95,0l5,0 0,5 -5,0 0,-5z M105,0l5,0 0,5 -5,0 0,-5z M125,0l5,0 0,5 -5,0 0,-5z M130,0l5,0 0,5 -5,0 0,-5z M140,0l5,0 0,5 -5,0 0,-5z M150,0l5,0 0,5 -5,0 0,-5z M155,0l5,0 0,5 -5,0 0,-5z M160,0l5,0 0,5 -5,0 0,-5z M180,0l5,0 0,5 -5,0 0,-5z M190,0l5,0 0,5 -5,0 0,-5z M195,0l5,0 0,5 -5,0 0,-5z M200,0l5,0 0,5 -5,0 0,-5z M205,0l5,0 0,5 -5,0 0,-5z M210,0l5,0 0,5 -5,0 0,-5z M215,0l5,0 0,5 -5,0 0,-5z M220,0l5,0 0,5 -5,0 0,-5z M0,5l5,0 0,5 -5,0 0,-5z M30,5l5,0 0,5 -5,0 0,-5z M40,5l5,0 0,5 -5,0 0,-5z M45,5l5,0 0,5 -5,0 0,-5z M55,5l5,0 0,5 -5,0 0,-5z M60,5l5,0 0,5 -5,0 0,-5z M70,5l5,0 0,5 -5,0 0,-5z M80,5l5,0 0,5 -5,0 0,-5z M85,5l5,0 0,5 -5,0 0,-5z M105,5l5,0 0,5 -5,0 0,-5z M130,5l5,0 0,5 -5,0 0,-5z M135,5l5,0 0,5 -5,0 0,-5z M140,5l5,0 0,5 -5,0 0,-5z M155,5l5,0 0,5 -5,0 0,-5z M175,5l5,0 0,5 -5,0 0,-5z M190,5l5,0 0,5 -5,0 0,-5z M220,5l5,0 0,5 -5,0 0,-5z M0,10l5,0 0,5 -5,0 0,-5z M10,10l5,0 0,5 -5,0 0,-5z M15,10l5,0 0,5 -5,0 0,-5z M20,10l5,0 0,5 -5,0 0,-5z M30,10l5,0 0,5 -5,0 0,-5z M40,10l5,0 0,5 -5,0 0,-5z M50,10l5,0 0,5 -5,0 0,-5z M60,10l5,0 0,5 -5,0 0,-5z M75,10l5,0 0,5 -5,0 0,-5z M90,10l5,0 0,5 -5,0 0,-5z M95,10l5,0 0,5 -5,0 0,-5z M100,10l5,0 0,5 -5,0 0,-5z M105,10l5,0 0,5 -5,0 0,-5z M115,10l5,0 0,5 -5,0 0,-5z M130,10l5,0 0,5 -5,0 0,-5z M140,10l5,0 0,5 -5,0 0,-5z M145,10l5,0 0,5 -5,0 0,-5z M165,10l5,0 0,5 -5,0 0,-5z M175,10l5,0 0,5 -5,0 0,-5z M190,10l5,0 0,5 -5,0 0,-5z M200,10l5,0 0,5 -5,0 0,-5z M205,10l5,0 0,5 -5,0 0,-5z M210,10l5,0 0,5 -5,0 0,-5z M220,10l5,0 0,5 -5,0 0,-5z M0,15l5,0 0,5 -5,0 0,-5z M10,15l5,0 0,5 -5,0 0,-5z M15,15l5,0 0,5 -5,0 0,-5z M20,15l5,0 0,5 -5,0 0,-5z M30,15l5,0 0,5 -5,0 0,-5z M50,15l5,0 0,5 -5,0 0,-5z M55,15l5,0 0,5 -5,0 0,-5z M60,15l5,0 0,5 -5,0 0,-5z M70,15l5,0 0,5 -5,0 0,-5z M75,15l5,0 0,5 -5,0 0,-5z M90,15l5,0 0,5 -5,0 0,-5z M95,15l5,0 0,5 -5,0 0,-5z M115,15l5,0 0,5 -5,0 0,-5z M125,15l5,0 0,5 -5,0 0,-5z M135,15l5,0 0,5 -5,0 0,-5z M140,15l5,0 0,5 -5,0 0,-5z M145,15l5,0 0,5 -5,0 0,-5z M155,15l5,0 0,5 -5,0 0,-5z M160,15l5,0 0,5 -5,0 0,-5z M175,15l5,0 0,5 -5,0 0,-5z M180,15l5,0 0,5 -5,0 0,-5z M190,15l5,0 0,5 -5,0 0,-5z M200,15l5,0 0,5 -5,0 0,-5z M205,15l5,0 0,5 -5,0 0,-5z M210,15l5,0 0,5 -5,0 0,-5z M220,15l5,0 0,5 -5,0 0,-5z M0,20l5,0 0,5 -5,0 0,-5z M10,20l5,0 0,5 -5,0 0,-5z M15,20l5,0 0,5 -5,0 0,-5z M20,20l5,0 0,5 -5,0 0,-5z M30,20l5,0 0,5 -5,0 0,-5z M45,20l5,0 0,5 -5,0 0,-5z M65,20l5,0 0,5 -5,0 0,-5z M70,20l5,0 0,5 -5,0 0,-5z M75,20l5,0 0,5 -5,0 0,-5z M80,20l5,0 0,5 -5,0 0,-5z M95,20l5,0 0,5 -5,0 0,-5z M100,20l5,0 0,5 -5,0 0,-5z M105,20l5,0 0,5 -5,0 0,-5z M110,20l5,0 0,5 -5,0 0,-5z M115,20l5,0 0,5 -5,0 0,-5z M120,20l5,0 0,5 -5,0 0,-5z M130,20l5,0 0,5 -5,0 0,-5z M135,20l5,0 0,5 -5,0 0,-5z M140,20l5,0 0,5 -5,0 0,-5z M145,20l5,0 0,5 -5,0 0,-5z M150,20l5,0 0,5 -5,0 0,-5z M160,20l5,0 0,5 -5,0 0,-5z M170,20l5,0 0,5 -5,0 0,-5z M175,20l5,0 0,5 -5,0 0,-5z M180,20l5,0 0,5 -5,0 0,-5z M190,20l5,0 0,5 -5,0 0,-5z M200,20l5,0 0,5 -5,0 0,-5z M205,20l5,0 0,5 -5,0 0,-5z M210,20l5,0 0,5 -5,0 0,-5z M220,20l5,0 0,5 -5,0 0,-5z M0,25l5,0 0,5 -5,0 0,-5z M30,25l5,0 0,5 -5,0 0,-5z M40,25l5,0 0,5 -5,0 0,-5z M55,25l5,0 0,5 -5,0 0,-5z M60,25l5,0 0,5 -5,0 0,-5z M70,25l5,0 0,5 -5,0 0,-5z M80,25l5,0 0,5 -5,0 0,-5z M85,25l5,0 0,5 -5,0 0,-5z M100,25l5,0 0,5 -5,0 0,-5z M120,25l5,0 0,5 -5,0 0,-5z M125,25l5,0 0,5 -5,0 0,-5z M130,25l5,0 0,5 -5,0 0,-5z M140,25l5,0 0,5 -5,0 0,-5z M155,25l5,0 0,5 -5,0 0,-5z M160,25l5,0 0,5 -5,0 0,-5z M190,25l5,0 0,5 -5,0 0,-5z M220,25l5,0 0,5 -5,0 0,-5z M0,30l5,0 0,5 -5,0 0,-5z M5,30l5,0 0,5 -5,0 0,-5z M10,30l5,0 0,5 -5,0 0,-5z M15,30l5,0 0,5 -5,0 0,-5z M20,30l5,0 0,5 -5,0 0,-5z M25,30l5,0 0,5 -5,0 0,-5z M30,30l5,0 0,5 -5,0 0,-5z M40,30l5,0 0,5 -5,0 0,-5z M50,30l5,0 0,5 -5,0 0,-5z M60,30l5,0 0,5 -5,0 0,-5z M70,30l5,0 0,5 -5,0 0,-5z M80,30l5,0 0,5 -5,0 0,-5z M90,30l5,0 0,5 -5,0 0,-5z M100,30l5,0 0,5 -5,0 0,-5z M110,30l5,0 0,5 -5,0 0,-5z M120,30l5,0 0,5 -5,0 0,-5z M130,30l5,0 0,5 -5,0 0,-5z M140,30l5,0 0,5 -5,0 0,-5z M150,30l5,0 0,5 -5,0 0,-5z M160,30l5,0 0,5 -5,0 0,-5z M170,30l5,0 0,5 -5,0 0,-5z M180,30l5,0 0,5 -5,0 0,-5z M190,30l5,0 0,5 -5,0 0,-5z M195,30l5,0 0,5 -5,0 0,-5z M200,30l5,0 0,5 -5,0 0,-5z M205,30l5,0 0,5 -5,0 0,-5z M210,30l5,0 0,5 -5,0 0,-5z M215,30l5,0 0,5 -5,0 0,-5z M220,30l5,0 0,5 -5,0 0,-5z M40,35l5,0 0,5 -5,0 0,-5z M50,35l5,0 0,5 -5,0 0,-5z M70,35l5,0 0,5 -5,0 0,-5z M85,35l5,0 0,5 -5,0 0,-5z M100,35l5,0 0,5 -5,0 0,-5z M120,35l5,0 0,5 -5,0 0,-5z M130,35l5,0 0,5 -5,0 0,-5z M140,35l5,0 0,5 -5,0 0,-5z M145,35l5,0 0,5 -5,0 0,-5z M155,35l5,0 0,5 -5,0 0,-5z M170,35l5,0 0,5 -5,0 0,-5z M175,35l5,0 0,5 -5,0 0,-5z M180,35l5,0 0,5 -5,0 0,-5z M10,40l5,0 0,5 -5,0 0,-5z M15,40l5,0 0,5 -5,0 0,-5z M20,40l5,0 0,5 -5,0 0,-5z M30,40l5,0 0,5 -5,0 0,-5z M40,40l5,0 0,5 -5,0 0,-5z M45,40l5,0 0,5 -5,0 0,-5z M50,40l5,0 0,5 -5,0 0,-5z M70,40l5,0 0,5 -5,0 0,-5z M75,40l5,0 0,5 -5,0 0,-5z M90,40l5,0 0,5 -5,0 0,-5z M100,40l5,0 0,5 -5,0 0,-5z M105,40l5,0 0,5 -5,0 0,-5z M110,40l5,0 0,5 -5,0 0,-5z M115,40l5,0 0,5 -5,0 0,-5z M120,40l5,0 0,5 -5,0 0,-5z M125,40l5,0 0,5 -5,0 0,-5z M135,40l5,0 0,5 -5,0 0,-5z M155,40l5,0 0,5 -5,0 0,-5z M170,40l5,0 0,5 -5,0 0,-5z M175,40l5,0 0,5 -5,0 0,-5z M185,40l5,0 0,5 -5,0 0,-5z M190,40l5,0 0,5 -5,0 0,-5z M195,40l5,0 0,5 -5,0 0,-5z M210,40l5,0 0,5 -5,0 0,-5z M215,40l5,0 0,5 -5,0 0,-5z M220,40l5,0 0,5 -5,0 0,-5z M5,45l5,0 0,5 -5,0 0,-5z M15,45l5,0 0,5 -5,0 0,-5z M20,45l5,0 0,5 -5,0 0,-5z M25,45l5,0 0,5 -5,0 0,-5z M40,45l5,0 0,5 -5,0 0,-5z M50,45l5,0 0,5 -5,0 0,-5z M55,45l5,0 0,5 -5,0 0,-5z M65,45l5,0 0,5 -5,0 0,-5z M70,45l5,0 0,5 -5,0 0,-5z M75,45l5,0 0,5 -5,0 0,-5z M85,45l5,0 0,5 -5,0 0,-5z M95,45l5,0 0,5 -5,0 0,-5z M110,45l5,0 0,5 -5,0 0,-5z M115,45l5,0 0,5 -5,0 0,-5z M150,45l5,0 0,5 -5,0 0,-5z M160,45l5,0 0,5 -5,0 0,-5z M165,45l5,0 0,5 -5,0 0,-5z M180,45l5,0 0,5 -5,0 0,-5z M185,45l5,0 0,5 -5,0 0,-5z M195,45l5,0 0,5 -5,0 0,-5z M200,45l5,0 0,5 -5,0 0,-5z M220,45l5,0 0,5 -5,0 0,-5z M0,50l5,0 0,5 -5,0 0,-5z M5,50l5,0 0,5 -5,0 0,-5z M10,50l5,0 0,5 -5,0 0,-5z M15,50l5,0 0,5 -5,0 0,-5z M25,50l5,0 0,5 -5,0 0,-5z M30,50l5,0 0,5 -5,0 0,-5z M35,50l5,0 0,5 -5,0 0,-5z M50,50l5,0 0,5 -5,0 0,-5z M55,50l5,0 0,5 -5,0 0,-5z M60,50l5,0 0,5 -5,0 0,-5z M85,50l5,0 0,5 -5,0 0,-5z M90,50l5,0 0,5 -5,0 0,-5z M100,50l5,0 0,5 -5,0 0,-5z M105,50l5,0 0,5 -5,0 0,-5z M110,50l5,0 0,5 -5,0 0,-5z M125,50l5,0 0,5 -5,0 0,-5z M135,50l5,0 0,5 -5,0 0,-5z M140,50l5,0 0,5 -5,0 0,-5z M145,50l5,0 0,5 -5,0 0,-5z M160,50l5,0 0,5 -5,0 0,-5z M165,50l5,0 0,5 -5,0 0,-5z M170,50l5,0 0,5 -5,0 0,-5z M175,50l5,0 0,5 -5,0 0,-5z M185,50l5,0 0,5 -5,0 0,-5z M195,50l5,0 0,5 -5,0 0,-5z M200,50l5,0 0,5 -5,0 0,-5z M205,50l5,0 0,5 -5,0 0,-5z M210,50l5,0 0,5 -5,0 0,-5z M215,50l5,0 0,5 -5,0 0,-5z M5,55l5,0 0,5 -5,0 0,-5z M10,55l5,0 0,5 -5,0 0,-5z M15,55l5,0 0,5 -5,0 0,-5z M20,55l5,0 0,5 -5,0 0,-5z M25,55l5,0 0,5 -5,0 0,-5z M35,55l5,0 0,5 -5,0 0,-5z M45,55l5,0 0,5 -5,0 0,-5z M50,55l5,0 0,5 -5,0 0,-5z M55,55l5,0 0,5 -5,0 0,-5z M65,55l5,0 0,5 -5,0 0,-5z M80,55l5,0 0,5 -5,0 0,-5z M85,55l5,0 0,5 -5,0 0,-5z M90,55l5,0 0,5 -5,0 0,-5z M95,55l5,0 0,5 -5,0 0,-5z M105,55l5,0 0,5 -5,0 0,-5z M130,55l5,0 0,5 -5,0 0,-5z M145,55l5,0 0,5 -5,0 0,-5z M150,55l5,0 0,5 -5,0 0,-5z M160,55l5,0 0,5 -5,0 0,-5z M165,55l5,0 0,5 -5,0 0,-5z M175,55l5,0 0,5 -5,0 0,-5z M180,55l5,0 0,5 -5,0 0,-5z M200,55l5,0 0,5 -5,0 0,-5z M210,55l5,0 0,5 -5,0 0,-5z M215,55l5,0 0,5 -5,0 0,-5z M0,60l5,0 0,5 -5,0 0,-5z M5,60l5,0 0,5 -5,0 0,-5z M20,60l5,0 0,5 -5,0 0,-5z M25,60l5,0 0,5 -5,0 0,-5z M30,60l5,0 0,5 -5,0 0,-5z M50,60l5,0 0,5 -5,0 0,-5z M55,60l5,0 0,5 -5,0 0,-5z M60,60l5,0 0,5 -5,0 0,-5z M65,60l5,0 0,5 -5,0 0,-5z M70,60l5,0 0,5 -5,0 0,-5z M90,60l5,0 0,5 -5,0 0,-5z M95,60l5,0 0,5 -5,0 0,-5z M100,60l5,0 0,5 -5,0 0,-5z M105,60l5,0 0,5 -5,0 0,-5z M120,60l5,0 0,5 -5,0 0,-5z M125,60l5,0 0,5 -5,0 0,-5z M130,60l5,0 0,5 -5,0 0,-5z M135,60l5,0 0,5 -5,0 0,-5z M140,60l5,0 0,5 -5,0 0,-5z M155,60l5,0 0,5 -5,0 0,-5z M175,60l5,0 0,5 -5,0 0,-5z M195,60l5,0 0,5 -5,0 0,-5z M205,60l5,0 0,5 -5,0 0,-5z M220,60l5,0 0,5 -5,0 0,-5z M5,65l5,0 0,5 -5,0 0,-5z M35,65l5,0 0,5 -5,0 0,-5z M45,65l5,0 0,5 -5,0 0,-5z M50,65l5,0 0,5 -5,0 0,-5z M65,65l5,0 0,5 -5,0 0,-5z M75,65l5,0 0,5 -5,0 0,-5z M80,65l5,0 0,5 -5,0 0,-5z M95,65l5,0 0,5 -5,0 0,-5z M105,65l5,0 0,5 -5,0 0,-5z M110,65l5,0 0,5 -5,0 0,-5z M125,65l5,0 0,5 -5,0 0,-5z M145,65l5,0 0,5 -5,0 0,-5z M150,65l5,0 0,5 -5,0 0,-5z M155,65l5,0 0,5 -5,0 0,-5z M175,65l5,0 0,5 -5,0 0,-5z M180,65l5,0 0,5 -5,0 0,-5z M185,65l5,0 0,5 -5,0 0,-5z M195,65l5,0 0,5 -5,0 0,-5z M215,65l5,0 0,5 -5,0 0,-5z M220,65l5,0 0,5 -5,0 0,-5z M15,70l5,0 0,5 -5,0 0,-5z M30,70l5,0 0,5 -5,0 0,-5z M40,70l5,0 0,5 -5,0 0,-5z M55,70l5,0 0,5 -5,0 0,-5z M60,70l5,0 0,5 -5,0 0,-5z M70,70l5,0 0,5 -5,0 0,-5z M80,70l5,0 0,5 -5,0 0,-5z M90,70l5,0 0,5 -5,0 0,-5z M95,70l5,0 0,5 -5,0 0,-5z M115,70l5,0 0,5 -5,0 0,-5z M120,70l5,0 0,5 -5,0 0,-5z M125,70l5,0 0,5 -5,0 0,-5z M135,70l5,0 0,5 -5,0 0,-5z M145,70l5,0 0,5 -5,0 0,-5z M155,70l5,0 0,5 -5,0 0,-5z M165,70l5,0 0,5 -5,0 0,-5z M170,70l5,0 0,5 -5,0 0,-5z M175,70l5,0 0,5 -5,0 0,-5z M180,70l5,0 0,5 -5,0 0,-5z M185,70l5,0 0,5 -5,0 0,-5z M190,70l5,0 0,5 -5,0 0,-5z M195,70l5,0 0,5 -5,0 0,-5z M200,70l5,0 0,5 -5,0 0,-5z M210,70l5,0 0,5 -5,0 0,-5z M215,70l5,0 0,5 -5,0 0,-5z M0,75l5,0 0,5 -5,0 0,-5z M5,75l5,0 0,5 -5,0 0,-5z M10,75l5,0 0,5 -5,0 0,-5z M15,75l5,0 0,5 -5,0 0,-5z M35,75l5,0 0,5 -5,0 0,-5z M40,75l5,0 0,5 -5,0 0,-5z M45,75l5,0 0,5 -5,0 0,-5z M50,75l5,0 0,5 -5,0 0,-5z M60,75l5,0 0,5 -5,0 0,-5z M65,75l5,0 0,5 -5,0 0,-5z M75,75l5,0 0,5 -5,0 0,-5z M80,75l5,0 0,5 -5,0 0,-5z M95,75l5,0 0,5 -5,0 0,-5z M115,75l5,0 0,5 -5,0 0,-5z M120,75l5,0 0,5 -5,0 0,-5z M130,75l5,0 0,5 -5,0 0,-5z M150,75l5,0 0,5 -5,0 0,-5z M160,75l5,0 0,5 -5,0 0,-5z M165,75l5,0 0,5 -5,0 0,-5z M170,75l5,0 0,5 -5,0 0,-5z M180,75l5,0 0,5 -5,0 0,-5z M205,75l5,0 0,5 -5,0 0,-5z M210,75l5,0 0,5 -5,0 0,-5z M215,75l5,0 0,5 -5,0 0,-5z M220,75l5,0 0,5 -5,0 0,-5z M5,80l5,0 0,5 -5,0 0,-5z M10,80l5,0 0,5 -5,0 0,-5z M15,80l5,0 0,5 -5,0 0,-5z M20,80l5,0 0,5 -5,0 0,-5z M30,80l5,0 0,5 -5,0 0,-5z M35,80l5,0 0,5 -5,0 0,-5z M40,80l5,0 0,5 -5,0 0,-5z M50,80l5,0 0,5 -5,0 0,-5z M55,80l5,0 0,5 -5,0 0,-5z M65,80l5,0 0,5 -5,0 0,-5z M90,80l5,0 0,5 -5,0 0,-5z M95,80l5,0 0,5 -5,0 0,-5z M105,80l5,0 0,5 -5,0 0,-5z M115,80l5,0 0,5 -5,0 0,-5z M120,80l5,0 0,5 -5,0 0,-5z M140,80l5,0 0,5 -5,0 0,-5z M145,80l5,0 0,5 -5,0 0,-5z M150,80l5,0 0,5 -5,0 0,-5z M155,80l5,0 0,5 -5,0 0,-5z M165,80l5,0 0,5 -5,0 0,-5z M170,80l5,0 0,5 -5,0 0,-5z M185,80l5,0 0,5 -5,0 0,-5z M205,80l5,0 0,5 -5,0 0,-5z M215,80l5,0 0,5 -5,0 0,-5z M220,80l5,0 0,5 -5,0 0,-5z M0,85l5,0 0,5 -5,0 0,-5z M5,85l5,0 0,5 -5,0 0,-5z M20,85l5,0 0,5 -5,0 0,-5z M50,85l5,0 0,5 -5,0 0,-5z M55,85l5,0 0,5 -5,0 0,-5z M65,85l5,0 0,5 -5,0 0,-5z M75,85l5,0 0,5 -5,0 0,-5z M80,85l5,0 0,5 -5,0 0,-5z M95,85l5,0 0,5 -5,0 0,-5z M115,85l5,0 0,5 -5,0 0,-5z M120,85l5,0 0,5 -5,0 0,-5z M125,85l5,0 0,5 -5,0 0,-5z M135,85l5,0 0,5 -5,0 0,-5z M150,85l5,0 0,5 -5,0 0,-5z M155,85l5,0 0,5 -5,0 0,-5z M160,85l5,0 0,5 -5,0 0,-5z M175,85l5,0 0,5 -5,0 0,-5z M180,85l5,0 0,5 -5,0 0,-5z M185,85l5,0 0,5 -5,0 0,-5z M195,85l5,0 0,5 -5,0 0,-5z M205,85l5,0 0,5 -5,0 0,-5z M220,85l5,0 0,5 -5,0 0,-5z M0,90l5,0 0,5 -5,0 0,-5z M10,90l5,0 0,5 -5,0 0,-5z M15,90l5,0 0,5 -5,0 0,-5z M25,90l5,0 0,5 -5,0 0,-5z M30,90l5,0 0,5 -5,0 0,-5z M40,90l5,0 0,5 -5,0 0,-5z M65,90l5,0 0,5 -5,0 0,-5z M70,90l5,0 0,5 -5,0 0,-5z M75,90l5,0 0,5 -5,0 0,-5z M80,90l5,0 0,5 -5,0 0,-5z M90,90l5,0 0,5 -5,0 0,-5z M95,90l5,0 0,5 -5,0 0,-5z M100,90l5,0 0,5 -5,0 0,-5z M105,90l5,0 0,5 -5,0 0,-5z M110,90l5,0 0,5 -5,0 0,-5z M115,90l5,0 0,5 -5,0 0,-5z M120,90l5,0 0,5 -5,0 0,-5z M140,90l5,0 0,5 -5,0 0,-5z M145,90l5,0 0,5 -5,0 0,-5z M150,90l5,0 0,5 -5,0 0,-5z M170,90l5,0 0,5 -5,0 0,-5z M190,90l5,0 0,5 -5,0 0,-5z M215,90l5,0 0,5 -5,0 0,-5z M0,95l5,0 0,5 -5,0 0,-5z M5,95l5,0 0,5 -5,0 0,-5z M15,95l5,0 0,5 -5,0 0,-5z M25,95l5,0 0,5 -5,0 0,-5z M50,95l5,0 0,5 -5,0 0,-5z M55,95l5,0 0,5 -5,0 0,-5z M60,95l5,0 0,5 -5,0 0,-5z M65,95l5,0 0,5 -5,0 0,-5z M75,95l5,0 0,5 -5,0 0,-5z M100,95l5,0 0,5 -5,0 0,-5z M110,95l5,0 0,5 -5,0 0,-5z M115,95l5,0 0,5 -5,0 0,-5z M130,95l5,0 0,5 -5,0 0,-5z M135,95l5,0 0,5 -5,0 0,-5z M145,95l5,0 0,5 -5,0 0,-5z M155,95l5,0 0,5 -5,0 0,-5z M160,95l5,0 0,5 -5,0 0,-5z M165,95l5,0 0,5 -5,0 0,-5z M170,95l5,0 0,5 -5,0 0,-5z M180,95l5,0 0,5 -5,0 0,-5z M185,95l5,0 0,5 -5,0 0,-5z M190,95l5,0 0,5 -5,0 0,-5z M195,95l5,0 0,5 -5,0 0,-5z M200,95l5,0 0,5 -5,0 0,-5z M205,95l5,0 0,5 -5,0 0,-5z M210,95l5,0 0,5 -5,0 0,-5z M215,95l5,0 0,5 -5,0 0,-5z M0,100l5,0 0,5 -5,0 0,-5z M5,100l5,0 0,5 -5,0 0,-5z M10,100l5,0 0,5 -5,0 0,-5z M20,100l5,0 0,5 -5,0 0,-5z M25,100l5,0 0,5 -5,0 0,-5z M30,100l5,0 0,5 -5,0 0,-5z M35,100l5,0 0,5 -5,0 0,-5z M40,100l5,0 0,5 -5,0 0,-5z M55,100l5,0 0,5 -5,0 0,-5z M65,100l5,0 0,5 -5,0 0,-5z M75,100l5,0 0,5 -5,0 0,-5z M80,100l5,0 0,5 -5,0 0,-5z M95,100l5,0 0,5 -5,0 0,-5z M100,100l5,0 0,5 -5,0 0,-5z M105,100l5,0 0,5 -5,0 0,-5z M110,100l5,0 0,5 -5,0 0,-5z M115,100l5,0 0,5 -5,0 0,-5z M120,100l5,0 0,5 -5,0 0,-5z M125,100l5,0 0,5 -5,0 0,-5z M135,100l5,0 0,5 -5,0 0,-5z M140,100l5,0 0,5 -5,0 0,-5z M155,100l5,0 0,5 -5,0 0,-5z M180,100l5,0 0,5 -5,0 0,-5z M185,100l5,0 0,5 -5,0 0,-5z M190,100l5,0 0,5 -5,0 0,-5z M195,100l5,0 0,5 -5,0 0,-5z M200,100l5,0 0,5 -5,0 0,-5z M205,100l5,0 0,5 -5,0 0,-5z M220,100l5,0 0,5 -5,0 0,-5z M10,105l5,0 0,5 -5,0 0,-5z M15,105l5,0 0,5 -5,0 0,-5z M20,105l5,0 0,5 -5,0 0,-5z M40,105l5,0 0,5 -5,0 0,-5z M45,105l5,0 0,5 -5,0 0,-5z M50,105l5,0 0,5 -5,0 0,-5z M55,105l5,0 0,5 -5,0 0,-5z M70,105l5,0 0,5 -5,0 0,-5z M75,105l5,0 0,5 -5,0 0,-5z M90,105l5,0 0,5 -5,0 0,-5z M100,105l5,0 0,5 -5,0 0,-5z M120,105l5,0 0,5 -5,0 0,-5z M125,105l5,0 0,5 -5,0 0,-5z M130,105l5,0 0,5 -5,0 0,-5z M135,105l5,0 0,5 -5,0 0,-5z M140,105l5,0 0,5 -5,0 0,-5z M145,105l5,0 0,5 -5,0 0,-5z M155,105l5,0 0,5 -5,0 0,-5z M160,105l5,0 0,5 -5,0 0,-5z M175,105l5,0 0,5 -5,0 0,-5z M180,105l5,0 0,5 -5,0 0,-5z M200,105l5,0 0,5 -5,0 0,-5z M205,105l5,0 0,5 -5,0 0,-5z M210,105l5,0 0,5 -5,0 0,-5z M220,105l5,0 0,5 -5,0 0,-5z M10,110l5,0 0,5 -5,0 0,-5z M15,110l5,0 0,5 -5,0 0,-5z M20,110l5,0 0,5 -5,0 0,-5z M30,110l5,0 0,5 -5,0 0,-5z M40,110l5,0 0,5 -5,0 0,-5z M45,110l5,0 0,5 -5,0 0,-5z M50,110l5,0 0,5 -5,0 0,-5z M65,110l5,0 0,5 -5,0 0,-5z M90,110l5,0 0,5 -5,0 0,-5z M95,110l5,0 0,5 -5,0 0,-5z M100,110l5,0 0,5 -5,0 0,-5z M110,110l5,0 0,5 -5,0 0,-5z M120,110l5,0 0,5 -5,0 0,-5z M130,110l5,0 0,5 -5,0 0,-5z M150,110l5,0 0,5 -5,0 0,-5z M155,110l5,0 0,5 -5,0 0,-5z M170,110l5,0 0,5 -5,0 0,-5z M180,110l5,0 0,5 -5,0 0,-5z M190,110l5,0 0,5 -5,0 0,-5z M200,110l5,0 0,5 -5,0 0,-5z M210,110l5,0 0,5 -5,0 0,-5z M215,110l5,0 0,5 -5,0 0,-5z M0,115l5,0 0,5 -5,0 0,-5z M5,115l5,0 0,5 -5,0 0,-5z M10,115l5,0 0,5 -5,0 0,-5z M15,115l5,0 0,5 -5,0 0,-5z M20,115l5,0 0,5 -5,0 0,-5z M40,115l5,0 0,5 -5,0 0,-5z M50,115l5,0 0,5 -5,0 0,-5z M70,115l5,0 0,5 -5,0 0,-5z M90,115l5,0 0,5 -5,0 0,-5z M95,115l5,0 0,5 -5,0 0,-5z M100,115l5,0 0,5 -5,0 0,-5z M120,115l5,0 0,5 -5,0 0,-5z M135,115l5,0 0,5 -5,0 0,-5z M140,115l5,0 0,5 -5,0 0,-5z M155,115l5,0 0,5 -5,0 0,-5z M165,115l5,0 0,5 -5,0 0,-5z M170,115l5,0 0,5 -5,0 0,-5z M180,115l5,0 0,5 -5,0 0,-5z M200,115l5,0 0,5 -5,0 0,-5z M205,115l5,0 0,5 -5,0 0,-5z M210,115l5,0 0,5 -5,0 0,-5z M215,115l5,0 0,5 -5,0 0,-5z M220,115l5,0 0,5 -5,0 0,-5z M20,120l5,0 0,5 -5,0 0,-5z M25,120l5,0 0,5 -5,0 0,-5z M30,120l5,0 0,5 -5,0 0,-5z M35,120l5,0 0,5 -5,0 0,-5z M40,120l5,0 0,5 -5,0 0,-5z M50,120l5,0 0,5 -5,0 0,-5z M60,120l5,0 0,5 -5,0 0,-5z M70,120l5,0 0,5 -5,0 0,-5z M75,120l5,0 0,5 -5,0 0,-5z M95,120l5,0 0,5 -5,0 0,-5z M100,120l5,0 0,5 -5,0 0,-5z M105,120l5,0 0,5 -5,0 0,-5z M110,120l5,0 0,5 -5,0 0,-5z M115,120l5,0 0,5 -5,0 0,-5z M120,120l5,0 0,5 -5,0 0,-5z M130,120l5,0 0,5 -5,0 0,-5z M165,120l5,0 0,5 -5,0 0,-5z M170,120l5,0 0,5 -5,0 0,-5z M180,120l5,0 0,5 -5,0 0,-5z M185,120l5,0 0,5 -5,0 0,-5z M190,120l5,0 0,5 -5,0 0,-5z M195,120l5,0 0,5 -5,0 0,-5z M200,120l5,0 0,5 -5,0 0,-5z M205,120l5,0 0,5 -5,0 0,-5z M220,120l5,0 0,5 -5,0 0,-5z M0,125l5,0 0,5 -5,0 0,-5z M5,125l5,0 0,5 -5,0 0,-5z M25,125l5,0 0,5 -5,0 0,-5z M45,125l5,0 0,5 -5,0 0,-5z M50,125l5,0 0,5 -5,0 0,-5z M60,125l5,0 0,5 -5,0 0,-5z M80,125l5,0 0,5 -5,0 0,-5z M95,125l5,0 0,5 -5,0 0,-5z M100,125l5,0 0,5 -5,0 0,-5z M105,125l5,0 0,5 -5,0 0,-5z M110,125l5,0 0,5 -5,0 0,-5z M115,125l5,0 0,5 -5,0 0,-5z M125,125l5,0 0,5 -5,0 0,-5z M150,125l5,0 0,5 -5,0 0,-5z M155,125l5,0 0,5 -5,0 0,-5z M165,125l5,0 0,5 -5,0 0,-5z M175,125l5,0 0,5 -5,0 0,-5z M180,125l5,0 0,5 -5,0 0,-5z M185,125l5,0 0,5 -5,0 0,-5z M190,125l5,0 0,5 -5,0 0,-5z M205,125l5,0 0,5 -5,0 0,-5z M210,125l5,0 0,5 -5,0 0,-5z M215,125l5,0 0,5 -5,0 0,-5z M5,130l5,0 0,5 -5,0 0,-5z M15,130l5,0 0,5 -5,0 0,-5z M20,130l5,0 0,5 -5,0 0,-5z M30,130l5,0 0,5 -5,0 0,-5z M35,130l5,0 0,5 -5,0 0,-5z M45,130l5,0 0,5 -5,0 0,-5z M50,130l5,0 0,5 -5,0 0,-5z M60,130l5,0 0,5 -5,0 0,-5z M65,130l5,0 0,5 -5,0 0,-5z M80,130l5,0 0,5 -5,0 0,-5z M90,130l5,0 0,5 -5,0 0,-5z M100,130l5,0 0,5 -5,0 0,-5z M120,130l5,0 0,5 -5,0 0,-5z M125,130l5,0 0,5 -5,0 0,-5z M130,130l5,0 0,5 -5,0 0,-5z M140,130l5,0 0,5 -5,0 0,-5z M145,130l5,0 0,5 -5,0 0,-5z M150,130l5,0 0,5 -5,0 0,-5z M165,130l5,0 0,5 -5,0 0,-5z M175,130l5,0 0,5 -5,0 0,-5z M185,130l5,0 0,5 -5,0 0,-5z M195,130l5,0 0,5 -5,0 0,-5z M205,130l5,0 0,5 -5,0 0,-5z M215,130l5,0 0,5 -5,0 0,-5z M15,135l5,0 0,5 -5,0 0,-5z M20,135l5,0 0,5 -5,0 0,-5z M35,135l5,0 0,5 -5,0 0,-5z M45,135l5,0 0,5 -5,0 0,-5z M55,135l5,0 0,5 -5,0 0,-5z M60,135l5,0 0,5 -5,0 0,-5z M65,135l5,0 0,5 -5,0 0,-5z M90,135l5,0 0,5 -5,0 0,-5z M95,135l5,0 0,5 -5,0 0,-5z M100,135l5,0 0,5 -5,0 0,-5z M110,135l5,0 0,5 -5,0 0,-5z M125,135l5,0 0,5 -5,0 0,-5z M135,135l5,0 0,5 -5,0 0,-5z M140,135l5,0 0,5 -5,0 0,-5z M150,135l5,0 0,5 -5,0 0,-5z M160,135l5,0 0,5 -5,0 0,-5z M170,135l5,0 0,5 -5,0 0,-5z M175,135l5,0 0,5 -5,0 0,-5z M190,135l5,0 0,5 -5,0 0,-5z M205,135l5,0 0,5 -5,0 0,-5z M210,135l5,0 0,5 -5,0 0,-5z M0,140l5,0 0,5 -5,0 0,-5z M5,140l5,0 0,5 -5,0 0,-5z M10,140l5,0 0,5 -5,0 0,-5z M25,140l5,0 0,5 -5,0 0,-5z M30,140l5,0 0,5 -5,0 0,-5z M35,140l5,0 0,5 -5,0 0,-5z M45,140l5,0 0,5 -5,0 0,-5z M55,140l5,0 0,5 -5,0 0,-5z M75,140l5,0 0,5 -5,0 0,-5z M85,140l5,0 0,5 -5,0 0,-5z M90,140l5,0 0,5 -5,0 0,-5z M105,140l5,0 0,5 -5,0 0,-5z M110,140l5,0 0,5 -5,0 0,-5z M120,140l5,0 0,5 -5,0 0,-5z M125,140l5,0 0,5 -5,0 0,-5z M130,140l5,0 0,5 -5,0 0,-5z M135,140l5,0 0,5 -5,0 0,-5z M140,140l5,0 0,5 -5,0 0,-5z M145,140l5,0 0,5 -5,0 0,-5z M150,140l5,0 0,5 -5,0 0,-5z M155,140l5,0 0,5 -5,0 0,-5z M170,140l5,0 0,5 -5,0 0,-5z M185,140l5,0 0,5 -5,0 0,-5z M190,140l5,0 0,5 -5,0 0,-5z M200,140l5,0 0,5 -5,0 0,-5z M205,140l5,0 0,5 -5,0 0,-5z M15,145l5,0 0,5 -5,0 0,-5z M25,145l5,0 0,5 -5,0 0,-5z M40,145l5,0 0,5 -5,0 0,-5z M50,145l5,0 0,5 -5,0 0,-5z M65,145l5,0 0,5 -5,0 0,-5z M70,145l5,0 0,5 -5,0 0,-5z M75,145l5,0 0,5 -5,0 0,-5z M85,145l5,0 0,5 -5,0 0,-5z M110,145l5,0 0,5 -5,0 0,-5z M115,145l5,0 0,5 -5,0 0,-5z M135,145l5,0 0,5 -5,0 0,-5z M145,145l5,0 0,5 -5,0 0,-5z M160,145l5,0 0,5 -5,0 0,-5z M185,145l5,0 0,5 -5,0 0,-5z M210,145l5,0 0,5 -5,0 0,-5z M220,145l5,0 0,5 -5,0 0,-5z M0,150l5,0 0,5 -5,0 0,-5z M5,150l5,0 0,5 -5,0 0,-5z M10,150l5,0 0,5 -5,0 0,-5z M20,150l5,0 0,5 -5,0 0,-5z M25,150l5,0 0,5 -5,0 0,-5z M30,150l5,0 0,5 -5,0 0,-5z M45,150l5,0 0,5 -5,0 0,-5z M50,150l5,0 0,5 -5,0 0,-5z M70,150l5,0 0,5 -5,0 0,-5z M75,150l5,0 0,5 -5,0 0,-5z M85,150l5,0 0,5 -5,0 0,-5z M100,150l5,0 0,5 -5,0 0,-5z M120,150l5,0 0,5 -5,0 0,-5z M125,150l5,0 0,5 -5,0 0,-5z M130,150l5,0 0,5 -5,0 0,-5z M140,150l5,0 0,5 -5,0 0,-5z M160,150l5,0 0,5 -5,0 0,-5z M170,150l5,0 0,5 -5,0 0,-5z M175,150l5,0 0,5 -5,0 0,-5z M185,150l5,0 0,5 -5,0 0,-5z M195,150l5,0 0,5 -5,0 0,-5z M215,150l5,0 0,5 -5,0 0,-5z M25,155l5,0 0,5 -5,0 0,-5z M40,155l5,0 0,5 -5,0 0,-5z M55,155l5,0 0,5 -5,0 0,-5z M60,155l5,0 0,5 -5,0 0,-5z M75,155l5,0 0,5 -5,0 0,-5z M80,155l5,0 0,5 -5,0 0,-5z M100,155l5,0 0,5 -5,0 0,-5z M105,155l5,0 0,5 -5,0 0,-5z M110,155l5,0 0,5 -5,0 0,-5z M130,155l5,0 0,5 -5,0 0,-5z M135,155l5,0 0,5 -5,0 0,-5z M150,155l5,0 0,5 -5,0 0,-5z M160,155l5,0 0,5 -5,0 0,-5z M170,155l5,0 0,5 -5,0 0,-5z M210,155l5,0 0,5 -5,0 0,-5z M215,155l5,0 0,5 -5,0 0,-5z M220,155l5,0 0,5 -5,0 0,-5z M20,160l5,0 0,5 -5,0 0,-5z M30,160l5,0 0,5 -5,0 0,-5z M40,160l5,0 0,5 -5,0 0,-5z M50,160l5,0 0,5 -5,0 0,-5z M60,160l5,0 0,5 -5,0 0,-5z M65,160l5,0 0,5 -5,0 0,-5z M70,160l5,0 0,5 -5,0 0,-5z M85,160l5,0 0,5 -5,0 0,-5z M95,160l5,0 0,5 -5,0 0,-5z M105,160l5,0 0,5 -5,0 0,-5z M110,160l5,0 0,5 -5,0 0,-5z M115,160l5,0 0,5 -5,0 0,-5z M125,160l5,0 0,5 -5,0 0,-5z M135,160l5,0 0,5 -5,0 0,-5z M140,160l5,0 0,5 -5,0 0,-5z M150,160l5,0 0,5 -5,0 0,-5z M155,160l5,0 0,5 -5,0 0,-5z M190,160l5,0 0,5 -5,0 0,-5z M200,160l5,0 0,5 -5,0 0,-5z M205,160l5,0 0,5 -5,0 0,-5z M215,160l5,0 0,5 -5,0 0,-5z M220,160l5,0 0,5 -5,0 0,-5z M5,165l5,0 0,5 -5,0 0,-5z M10,165l5,0 0,5 -5,0 0,-5z M15,165l5,0 0,5 -5,0 0,-5z M20,165l5,0 0,5 -5,0 0,-5z M35,165l5,0 0,5 -5,0 0,-5z M40,165l5,0 0,5 -5,0 0,-5z M50,165l5,0 0,5 -5,0 0,-5z M60,165l5,0 0,5 -5,0 0,-5z M65,165l5,0 0,5 -5,0 0,-5z M85,165l5,0 0,5 -5,0 0,-5z M110,165l5,0 0,5 -5,0 0,-5z M115,165l5,0 0,5 -5,0 0,-5z M130,165l5,0 0,5 -5,0 0,-5z M135,165l5,0 0,5 -5,0 0,-5z M140,165l5,0 0,5 -5,0 0,-5z M155,165l5,0 0,5 -5,0 0,-5z M160,165l5,0 0,5 -5,0 0,-5z M165,165l5,0 0,5 -5,0 0,-5z M175,165l5,0 0,5 -5,0 0,-5z M190,165l5,0 0,5 -5,0 0,-5z M205,165l5,0 0,5 -5,0 0,-5z M210,165l5,0 0,5 -5,0 0,-5z M220,165l5,0 0,5 -5,0 0,-5z M20,170l5,0 0,5 -5,0 0,-5z M30,170l5,0 0,5 -5,0 0,-5z M55,170l5,0 0,5 -5,0 0,-5z M60,170l5,0 0,5 -5,0 0,-5z M65,170l5,0 0,5 -5,0 0,-5z M70,170l5,0 0,5 -5,0 0,-5z M75,170l5,0 0,5 -5,0 0,-5z M90,170l5,0 0,5 -5,0 0,-5z M125,170l5,0 0,5 -5,0 0,-5z M135,170l5,0 0,5 -5,0 0,-5z M140,170l5,0 0,5 -5,0 0,-5z M150,170l5,0 0,5 -5,0 0,-5z M160,170l5,0 0,5 -5,0 0,-5z M165,170l5,0 0,5 -5,0 0,-5z M170,170l5,0 0,5 -5,0 0,-5z M175,170l5,0 0,5 -5,0 0,-5z M180,170l5,0 0,5 -5,0 0,-5z M185,170l5,0 0,5 -5,0 0,-5z M195,170l5,0 0,5 -5,0 0,-5z M210,170l5,0 0,5 -5,0 0,-5z M5,175l5,0 0,5 -5,0 0,-5z M10,175l5,0 0,5 -5,0 0,-5z M15,175l5,0 0,5 -5,0 0,-5z M20,175l5,0 0,5 -5,0 0,-5z M35,175l5,0 0,5 -5,0 0,-5z M45,175l5,0 0,5 -5,0 0,-5z M50,175l5,0 0,5 -5,0 0,-5z M95,175l5,0 0,5 -5,0 0,-5z M100,175l5,0 0,5 -5,0 0,-5z M105,175l5,0 0,5 -5,0 0,-5z M110,175l5,0 0,5 -5,0 0,-5z M115,175l5,0 0,5 -5,0 0,-5z M120,175l5,0 0,5 -5,0 0,-5z M130,175l5,0 0,5 -5,0 0,-5z M135,175l5,0 0,5 -5,0 0,-5z M150,175l5,0 0,5 -5,0 0,-5z M160,175l5,0 0,5 -5,0 0,-5z M165,175l5,0 0,5 -5,0 0,-5z M170,175l5,0 0,5 -5,0 0,-5z M175,175l5,0 0,5 -5,0 0,-5z M190,175l5,0 0,5 -5,0 0,-5z M205,175l5,0 0,5 -5,0 0,-5z M210,175l5,0 0,5 -5,0 0,-5z M215,175l5,0 0,5 -5,0 0,-5z M0,180l5,0 0,5 -5,0 0,-5z M15,180l5,0 0,5 -5,0 0,-5z M20,180l5,0 0,5 -5,0 0,-5z M30,180l5,0 0,5 -5,0 0,-5z M40,180l5,0 0,5 -5,0 0,-5z M60,180l5,0 0,5 -5,0 0,-5z M70,180l5,0 0,5 -5,0 0,-5z M75,180l5,0 0,5 -5,0 0,-5z M80,180l5,0 0,5 -5,0 0,-5z M95,180l5,0 0,5 -5,0 0,-5z M100,180l5,0 0,5 -5,0 0,-5z M105,180l5,0 0,5 -5,0 0,-5z M110,180l5,0 0,5 -5,0 0,-5z M115,180l5,0 0,5 -5,0 0,-5z M120,180l5,0 0,5 -5,0 0,-5z M125,180l5,0 0,5 -5,0 0,-5z M130,180l5,0 0,5 -5,0 0,-5z M145,180l5,0 0,5 -5,0 0,-5z M155,180l5,0 0,5 -5,0 0,-5z M165,180l5,0 0,5 -5,0 0,-5z M170,180l5,0 0,5 -5,0 0,-5z M180,180l5,0 0,5 -5,0 0,-5z M185,180l5,0 0,5 -5,0 0,-5z M190,180l5,0 0,5 -5,0 0,-5z M195,180l5,0 0,5 -5,0 0,-5z M200,180l5,0 0,5 -5,0 0,-5z M205,180l5,0 0,5 -5,0 0,-5z M215,180l5,0 0,5 -5,0 0,-5z M220,180l5,0 0,5 -5,0 0,-5z M40,185l5,0 0,5 -5,0 0,-5z M45,185l5,0 0,5 -5,0 0,-5z M50,185l5,0 0,5 -5,0 0,-5z M55,185l5,0 0,5 -5,0 0,-5z M60,185l5,0 0,5 -5,0 0,-5z M65,185l5,0 0,5 -5,0 0,-5z M70,185l5,0 0,5 -5,0 0,-5z M85,185l5,0 0,5 -5,0 0,-5z M90,185l5,0 0,5 -5,0 0,-5z M100,185l5,0 0,5 -5,0 0,-5z M120,185l5,0 0,5 -5,0 0,-5z M125,185l5,0 0,5 -5,0 0,-5z M130,185l5,0 0,5 -5,0 0,-5z M150,185l5,0 0,5 -5,0 0,-5z M160,185l5,0 0,5 -5,0 0,-5z M180,185l5,0 0,5 -5,0 0,-5z M200,185l5,0 0,5 -5,0 0,-5z M210,185l5,0 0,5 -5,0 0,-5z M220,185l5,0 0,5 -5,0 0,-5z M0,190l5,0 0,5 -5,0 0,-5z M5,190l5,0 0,5 -5,0 0,-5z M10,190l5,0 0,5 -5,0 0,-5z M15,190l5,0 0,5 -5,0 0,-5z M20,190l5,0 0,5 -5,0 0,-5z M25,190l5,0 0,5 -5,0 0,-5z M30,190l5,0 0,5 -5,0 0,-5z M45,190l5,0 0,5 -5,0 0,-5z M55,190l5,0 0,5 -5,0 0,-5z M60,190l5,0 0,5 -5,0 0,-5z M75,190l5,0 0,5 -5,0 0,-5z M80,190l5,0 0,5 -5,0 0,-5z M85,190l5,0 0,5 -5,0 0,-5z M100,190l5,0 0,5 -5,0 0,-5z M110,190l5,0 0,5 -5,0 0,-5z M120,190l5,0 0,5 -5,0 0,-5z M125,190l5,0 0,5 -5,0 0,-5z M145,190l5,0 0,5 -5,0 0,-5z M150,190l5,0 0,5 -5,0 0,-5z M155,190l5,0 0,5 -5,0 0,-5z M160,190l5,0 0,5 -5,0 0,-5z M165,190l5,0 0,5 -5,0 0,-5z M170,190l5,0 0,5 -5,0 0,-5z M175,190l5,0 0,5 -5,0 0,-5z M180,190l5,0 0,5 -5,0 0,-5z M190,190l5,0 0,5 -5,0 0,-5z M200,190l5,0 0,5 -5,0 0,-5z M205,190l5,0 0,5 -5,0 0,-5z M215,190l5,0 0,5 -5,0 0,-5z M0,195l5,0 0,5 -5,0 0,-5z M30,195l5,0 0,5 -5,0 0,-5z M50,195l5,0 0,5 -5,0 0,-5z M55,195l5,0 0,5 -5,0 0,-5z M60,195l5,0 0,5 -5,0 0,-5z M70,195l5,0 0,5 -5,0 0,-5z M75,195l5,0 0,5 -5,0 0,-5z M80,195l5,0 0,5 -5,0 0,-5z M100,195l5,0 0,5 -5,0 0,-5z M120,195l5,0 0,5 -5,0 0,-5z M125,195l5,0 0,5 -5,0 0,-5z M155,195l5,0 0,5 -5,0 0,-5z M160,195l5,0 0,5 -5,0 0,-5z M180,195l5,0 0,5 -5,0 0,-5z M200,195l5,0 0,5 -5,0 0,-5z M205,195l5,0 0,5 -5,0 0,-5z M210,195l5,0 0,5 -5,0 0,-5z M220,195l5,0 0,5 -5,0 0,-5z M0,200l5,0 0,5 -5,0 0,-5z M10,200l5,0 0,5 -5,0 0,-5z M15,200l5,0 0,5 -5,0 0,-5z M20,200l5,0 0,5 -5,0 0,-5z M30,200l5,0 0,5 -5,0 0,-5z M40,200l5,0 0,5 -5,0 0,-5z M50,200l5,0 0,5 -5,0 0,-5z M55,200l5,0 0,5 -5,0 0,-5z M70,200l5,0 0,5 -5,0 0,-5z M80,200l5,0 0,5 -5,0 0,-5z M85,200l5,0 0,5 -5,0 0,-5z M90,200l5,0 0,5 -5,0 0,-5z M95,200l5,0 0,5 -5,0 0,-5z M100,200l5,0 0,5 -5,0 0,-5z M105,200l5,0 0,5 -5,0 0,-5z M110,200l5,0 0,5 -5,0 0,-5z M115,200l5,0 0,5 -5,0 0,-5z M120,200l5,0 0,5 -5,0 0,-5z M125,200l5,0 0,5 -5,0 0,-5z M130,200l5,0 0,5 -5,0 0,-5z M140,200l5,0 0,5 -5,0 0,-5z M145,200l5,0 0,5 -5,0 0,-5z M155,200l5,0 0,5 -5,0 0,-5z M165,200l5,0 0,5 -5,0 0,-5z M170,200l5,0 0,5 -5,0 0,-5z M175,200l5,0 0,5 -5,0 0,-5z M180,200l5,0 0,5 -5,0 0,-5z M185,200l5,0 0,5 -5,0 0,-5z M190,200l5,0 0,5 -5,0 0,-5z M195,200l5,0 0,5 -5,0 0,-5z M200,200l5,0 0,5 -5,0 0,-5z M205,200l5,0 0,5 -5,0 0,-5z M215,200l5,0 0,5 -5,0 0,-5z M220,200l5,0 0,5 -5,0 0,-5z M0,205l5,0 0,5 -5,0 0,-5z M10,205l5,0 0,5 -5,0 0,-5z M15,205l5,0 0,5 -5,0 0,-5z M20,205l5,0 0,5 -5,0 0,-5z M30,205l5,0 0,5 -5,0 0,-5z M40,205l5,0 0,5 -5,0 0,-5z M45,205l5,0 0,5 -5,0 0,-5z M55,205l5,0 0,5 -5,0 0,-5z M65,205l5,0 0,5 -5,0 0,-5z M70,205l5,0 0,5 -5,0 0,-5z M80,205l5,0 0,5 -5,0 0,-5z M90,205l5,0 0,5 -5,0 0,-5z M95,205l5,0 0,5 -5,0 0,-5z M100,205l5,0 0,5 -5,0 0,-5z M115,205l5,0 0,5 -5,0 0,-5z M125,205l5,0 0,5 -5,0 0,-5z M145,205l5,0 0,5 -5,0 0,-5z M155,205l5,0 0,5 -5,0 0,-5z M160,205l5,0 0,5 -5,0 0,-5z M175,205l5,0 0,5 -5,0 0,-5z M195,205l5,0 0,5 -5,0 0,-5z M200,205l5,0 0,5 -5,0 0,-5z M205,205l5,0 0,5 -5,0 0,-5z M210,205l5,0 0,5 -5,0 0,-5z M215,205l5,0 0,5 -5,0 0,-5z M220,205l5,0 0,5 -5,0 0,-5z M0,210l5,0 0,5 -5,0 0,-5z M10,210l5,0 0,5 -5,0 0,-5z M15,210l5,0 0,5 -5,0 0,-5z M20,210l5,0 0,5 -5,0 0,-5z M30,210l5,0 0,5 -5,0 0,-5z M40,210l5,0 0,5 -5,0 0,-5z M60,210l5,0 0,5 -5,0 0,-5z M65,210l5,0 0,5 -5,0 0,-5z M80,210l5,0 0,5 -5,0 0,-5z M85,210l5,0 0,5 -5,0 0,-5z M90,210l5,0 0,5 -5,0 0,-5z M95,210l5,0 0,5 -5,0 0,-5z M100,210l5,0 0,5 -5,0 0,-5z M105,210l5,0 0,5 -5,0 0,-5z M115,210l5,0 0,5 -5,0 0,-5z M125,210l5,0 0,5 -5,0 0,-5z M150,210l5,0 0,5 -5,0 0,-5z M155,210l5,0 0,5 -5,0 0,-5z M175,210l5,0 0,5 -5,0 0,-5z M180,210l5,0 0,5 -5,0 0,-5z M185,210l5,0 0,5 -5,0 0,-5z M190,210l5,0 0,5 -5,0 0,-5z M205,210l5,0 0,5 -5,0 0,-5z M210,210l5,0 0,5 -5,0 0,-5z M0,215l5,0 0,5 -5,0 0,-5z M30,215l5,0 0,5 -5,0 0,-5z M45,215l5,0 0,5 -5,0 0,-5z M55,215l5,0 0,5 -5,0 0,-5z M65,215l5,0 0,5 -5,0 0,-5z M80,215l5,0 0,5 -5,0 0,-5z M90,215l5,0 0,5 -5,0 0,-5z M95,215l5,0 0,5 -5,0 0,-5z M100,215l5,0 0,5 -5,0 0,-5z M115,215l5,0 0,5 -5,0 0,-5z M130,215l5,0 0,5 -5,0 0,-5z M135,215l5,0 0,5 -5,0 0,-5z M140,215l5,0 0,5 -5,0 0,-5z M150,215l5,0 0,5 -5,0 0,-5z M170,215l5,0 0,5 -5,0 0,-5z M175,215l5,0 0,5 -5,0 0,-5z M200,215l5,0 0,5 -5,0 0,-5z M205,215l5,0 0,5 -5,0 0,-5z M210,215l5,0 0,5 -5,0 0,-5z M0,220l5,0 0,5 -5,0 0,-5z M5,220l5,0 0,5 -5,0 0,-5z M10,220l5,0 0,5 -5,0 0,-5z M15,220l5,0 0,5 -5,0 0,-5z M20,220l5,0 0,5 -5,0 0,-5z M25,220l5,0 0,5 -5,0 0,-5z M30,220l5,0 0,5 -5,0 0,-5z M70,220l5,0 0,5 -5,0 0,-5z M75,220l5,0 0,5 -5,0 0,-5z M85,220l5,0 0,5 -5,0 0,-5z M90,220l5,0 0,5 -5,0 0,-5z M95,220l5,0 0,5 -5,0 0,-5z M100,220l5,0 0,5 -5,0 0,-5z M105,220l5,0 0,5 -5,0 0,-5z M110,220l5,0 0,5 -5,0 0,-5z M120,220l5,0 0,5 -5,0 0,-5z M125,220l5,0 0,5 -5,0 0,-5z M135,220l5,0 0,5 -5,0 0,-5z M155,220l5,0 0,5 -5,0 0,-5z M160,220l5,0 0,5 -5,0 0,-5z M165,220l5,0 0,5 -5,0 0,-5z M170,220l5,0 0,5 -5,0 0,-5z M175,220l5,0 0,5 -5,0 0,-5z M180,220l5,0 0,5 -5,0 0,-5z M185,220l5,0 0,5 -5,0 0,-5z M190,220l5,0 0,5 -5,0 0,-5z M195,220l5,0 0,5 -5,0 0,-5z M205,220l5,0 0,5 -5,0 0,-5z M215,220l5,0 0,5 -5,0 0,-5z " stroke="transparent" fill="black"/></g><g transform="translate(0,705)"><text><tspan x="6">&#xa0;</tspan></text><text><tspan x="30">&#xa0;</tspan></text><text><tspan x="486">&#xa0;</tspan></text></g><g transform="translate(0,705)"><path d="M0,12h504" fill="none" stroke="#000" stroke-width="2"/></g><g transform="translate(0,753)"><text><tspan x="6">&#xa0;</tspan></text><text><tspan x="30">&#xa0;</tspan></text><text><tspan x="486">&#xa0;</tspan></text></g><g transform="translate(0,825)"><text><tspan x="6">&#xa0;</tspan></text><text stroke="#000" transform="scale(3,3)"><tspan x="78">#</tspan><tspan x="90">1</tspan></text><text><tspan x="474">&#xa0;</tspan></text></g><g transform="translate(0,849)"><text><tspan x="6">&#xa0;</tspan></text><text><tspan x="42">&#xa0;</tspan></text><text><tspan x="474">&#xa0;</tspan></text></g></g></svg>
